<svg width="145" height="48" viewBox="0 0 145 48" fill="none" xmlns="http://www.w3.org/2000/svg">
<path d="M19.5816 46.6275C23.0739 46.4412 22.9808 45.2771 21.5373 43.2283L12.3641 31.0283C12.0381 30.5627 11.7587 30.423 11.3862 30.423C11.0137 30.423 10.7343 30.6558 10.3152 31.0749L8.91827 32.5184V44.0664C8.91827 45.9756 9.57018 46.4412 12.6434 46.6275V47H0.210681V46.6275C3.28395 46.4412 3.93585 45.9756 3.93585 44.0664V16.0345C3.93585 14.1253 3.28395 13.6597 0.210681 13.4734V13.1009H12.6434V13.4734C9.57018 13.6597 8.91827 14.1253 8.91827 16.0345V31.2146L19.861 19.8062C24.0052 15.5223 24.0518 13.6597 20.4197 13.4734V13.1009H32.154V13.4734C29.5464 13.7528 25.6816 15.3826 20.7923 20.4116L15.0182 26.3719L25.9144 40.9C28.9411 45.3237 30.0586 46.3481 32.7128 46.6275V47H19.5816V46.6275ZM47.7725 47.4656C38.2733 47.4656 30.8229 40.6206 30.8229 30.423C30.8229 19.8062 38.6458 12.6353 48.4244 12.6353C58.0633 12.6353 65.5136 19.4803 65.5136 29.6779C65.5136 40.2947 57.5976 47.4656 47.7725 47.4656ZM36.5038 28.8398C36.5038 38.2924 41.3466 46.6275 48.7038 46.6275C55.0831 46.6275 59.8327 40.5741 59.8327 31.2611C59.8327 21.8551 54.99 13.4734 47.4465 13.4734C41.2069 13.4734 36.5038 19.5734 36.5038 28.8398ZM67.3704 46.6275C70.6765 46.4412 71.3284 45.9756 71.3284 44.0664V16.0345C71.3284 14.1253 70.6765 13.6597 67.3704 13.4734V13.1009H80.2222V13.4734C76.9161 13.6597 76.2642 14.1253 76.2642 16.0345V44.0664C76.2642 45.9756 76.9161 46.4412 80.2222 46.6275V47H67.3704V46.6275ZM81.9597 46.6275C85.2658 46.3481 86.7558 45.1374 86.7558 41.3191V18.7818C86.7558 14.9635 85.2658 13.7528 81.9597 13.4734V13.1009H91.226L110.271 38.6649V18.7818C110.271 14.9635 108.781 13.7528 104.171 13.4734V13.1009H116.138V13.4734C112.832 13.7528 111.342 14.9635 111.342 18.7818V47.4656H110.923L87.7803 16.8727V41.3191C87.7803 45.1374 89.2703 46.3481 93.8802 46.6275V47H81.9597V46.6275ZM117.714 46.6275C120.787 46.4412 121.439 45.9756 121.439 44.0664V16.0345C121.439 14.1253 120.787 13.6597 117.714 13.4734V13.1009H141.275L142.812 21.11H142.44C139.785 15.336 137.411 13.846 131.962 13.846H126.421V29.3986H131.683C135.967 29.3986 137.131 27.2566 137.969 23.3917H138.388V36.4298H137.969C137.131 32.3321 135.967 30.2367 131.683 30.2367H126.421V44.1596C126.421 45.6031 127.213 46.255 128.703 46.255H133.313C138.016 46.255 140.763 44.6718 144.256 38.5252H144.675L142.114 47H117.714V46.6275ZM125.537 2.62388C125.537 1.50633 126.468 0.575033 127.585 0.575033C128.563 0.575033 129.215 1.18037 129.588 1.97197C130.007 2.76357 132.149 7.4666 133.359 9.70171L133.08 9.93453C131.078 8.07194 127.306 5.09181 126.282 4.25364C125.863 3.92769 125.537 3.32235 125.537 2.62388Z" fill="#EBEEF4"/>
</svg>
