<?xml version="1.0" encoding="UTF-8"?>
<svg id="Livello_1" xmlns="http://www.w3.org/2000/svg" version="1.1" viewBox="0 0 145 48">
  <!-- Generator: Adobe Illustrator 29.6.1, SVG Export Plug-In . SVG Version: 2.1.1 Build 9)  -->
  <defs>
    <style>
      .st0 {
        fill: #101010;
      }
    </style>
  </defs>
  <path class="st0" d="M19.6,46.6c3.5-.2,3.4-1.4,2-3.4l-9.2-12.2c-.3-.5-.6-.6-1-.6s-.7.2-1.1.7l-1.4,1.4v11.5c0,1.9.7,2.4,3.7,2.6v.4H.2v-.4c3.1-.2,3.7-.7,3.7-2.6v-28c0-1.9-.7-2.4-3.7-2.6v-.4h12.4v.4c-3.1.2-3.7.7-3.7,2.6v15.2l10.9-11.4c4.1-4.3,4.2-6.1.6-6.3v-.4h11.7v.4c-2.6.3-6.5,1.9-11.4,6.9l-5.8,6,10.9,14.5c3,4.4,4.1,5.4,6.8,5.7v.4h-13.1v-.4ZM47.8,47.5c-9.5,0-16.9-6.8-16.9-17s7.8-17.8,17.6-17.8,17.1,6.8,17.1,17-7.9,17.8-17.7,17.8ZM36.5,28.8c0,9.5,4.8,17.8,12.2,17.8s11.1-6.1,11.1-15.4-4.8-17.8-12.4-17.8-10.9,6.1-10.9,15.4ZM67.4,46.6c3.3-.2,4-.7,4-2.6v-28c0-1.9-.7-2.4-4-2.6v-.4h12.9v.4c-3.3.2-4,.7-4,2.6v28c0,1.9.7,2.4,4,2.6v.4h-12.9v-.4ZM82,46.6c3.3-.3,4.8-1.5,4.8-5.3v-22.5c0-3.8-1.5-5-4.8-5.3v-.4h9.3l19,25.6v-19.9c0-3.8-1.5-5-6.1-5.3v-.4h12v.4c-3.3.3-4.8,1.5-4.8,5.3v28.7h-.4l-23.1-30.6v24.4c0,3.8,1.5,5,6.1,5.3v.4h-11.9v-.4ZM117.7,46.6c3.1-.2,3.7-.7,3.7-2.6v-28c0-1.9-.7-2.4-3.7-2.6v-.4h23.6l1.5,8h-.4c-2.7-5.8-5-7.3-10.5-7.3h-5.5v15.6h5.3c4.3,0,5.4-2.1,6.3-6h.4v13h-.4c-.8-4.1-2-6.2-6.3-6.2h-5.3v13.9c0,1.4.8,2.1,2.3,2.1h4.6c4.7,0,7.4-1.6,10.9-7.7h.4l-2.6,8.5h-24.4v-.4ZM125.5,2.6c0-1.1.9-2,2-2s1.6.6,2,1.4c.4.8,2.6,5.5,3.8,7.7l-.3.2c-2-1.9-5.8-4.8-6.8-5.7-.4-.3-.7-.9-.7-1.6Z"/>
</svg>