<svg width="46" height="41" viewBox="0 0 46 41" fill="none" xmlns="http://www.w3.org/2000/svg">
<path d="M35.8179 24.3091C34.5734 24.8806 33.4544 25.4405 32.3127 25.8954C29.8236 26.8868 27.2432 27.4584 24.5829 27.6683C22.6647 27.8316 20.7466 27.9249 18.817 27.7383C13.1538 27.2018 8.16426 25.1839 4.248 20.8216C2.02155 18.3489 0.799854 15.4096 0.365982 12.0971C0.0577039 9.82261 0.160463 7.58315 1.06246 5.44867C2.23848 2.67267 4.21374 0.771465 7.18234 0.199936C9.21469 -0.196635 11.247 0.0366422 13.2451 0.549852C13.5192 0.619835 13.7932 0.701482 14.0672 0.806456C14.1585 0.841448 14.2727 0.958086 14.2727 1.0514C14.2727 1.13304 14.1585 1.24968 14.0786 1.29634C12.7428 1.92619 11.4069 2.55603 10.071 3.16255C9.68281 3.33751 9.30603 3.23254 8.91783 3.09257C8.32411 2.87096 7.70755 2.63768 7.07958 2.57936C5.82364 2.47439 5.01298 3.02259 4.5106 4.20064C4.01964 5.35536 3.91688 6.5684 4.05389 7.7931C4.40784 11.2223 5.98348 14.0683 8.20993 16.5643C11.6238 20.4017 15.8598 22.6179 20.8721 23.306C24.7998 23.8426 28.6362 23.4227 32.3698 22.058C32.9406 21.848 33.3403 21.883 33.7741 22.3496C34.3564 23.0028 35.0415 23.586 35.8179 24.3091Z" fill="#101010"/>
<path d="M9.93412 16.0626C11.0759 15.5377 12.1948 14.9662 13.348 14.4996C15.8142 13.4965 18.3946 12.9833 21.0321 12.7267C24.3661 12.4118 27.6772 12.5284 30.9312 13.3682C35.9322 14.6629 40.0768 17.2989 42.9883 21.7545C44.2671 23.7141 44.8951 25.9069 45.2262 28.2046C45.5573 30.4791 45.4774 32.7186 44.5982 34.8647C43.4336 37.6874 41.4583 39.6119 38.4555 40.2184C36.4231 40.6266 34.3908 40.3817 32.3927 39.8802C32.1301 39.8102 31.8675 39.7519 31.6163 39.6469C31.5021 39.6002 31.4222 39.4603 31.3194 39.3669C31.4108 39.2853 31.4907 39.1687 31.5935 39.1103C32.2899 38.7721 32.9978 38.4572 33.6943 38.1306C34.231 37.8856 34.7676 37.6407 35.2814 37.3724C35.7723 37.1158 36.229 37.1508 36.7543 37.3491C37.3937 37.594 38.0901 37.7807 38.7638 37.8506C39.6429 37.944 40.328 37.4891 40.8075 36.7426C41.5269 35.6112 41.641 34.3515 41.5839 33.0451C41.4584 30.0825 40.2367 27.5631 38.5354 25.2537C35.1672 20.6698 30.6458 18.0571 25.1539 17.159C20.9979 16.4825 16.9332 16.9724 12.9826 18.4187C12.5944 18.5586 12.3204 18.5236 12.035 18.2204C11.4413 17.6255 10.8247 17.0657 10.2081 16.5058C10.1054 16.4125 9.96837 16.3542 9.84277 16.2842C9.87703 16.2142 9.89986 16.1442 9.93412 16.0626Z" fill="#101010"/>
<path d="M1.05103 18.7012C1.19946 18.8995 1.27938 19.0044 1.33647 19.1094C3.08337 22.3636 5.7437 24.6031 8.91781 26.2593C12.149 27.9623 15.6086 28.942 19.2166 29.222C22.1966 29.4552 25.1766 29.222 28.1109 28.6154C30.7598 28.0672 33.3288 27.2508 35.7265 25.9444C35.875 25.8628 36.0234 25.7695 36.1718 25.6878C36.7541 25.3379 36.7884 25.3146 37.1994 25.8861C37.6447 26.5043 38.0329 27.1691 38.444 27.8223C38.6381 28.1256 38.444 28.2772 38.227 28.4055C36.8226 29.2103 35.4411 30.0618 34.0025 30.7849C30.9311 32.3129 27.6428 33.141 24.2746 33.6892C22.1623 34.0391 20.0272 34.2024 17.8807 34.0974C13.7703 33.8992 9.83123 32.9894 6.24607 30.8549C4.09955 29.5835 2.22705 27.9623 0.98252 25.7228C-0.124995 23.705 -0.364767 21.6055 0.617154 19.4477C0.719913 19.226 0.868343 19.0161 1.05103 18.7012Z" fill="#101010"/>
<path d="M23.1214 11.1322C19.7646 11.1788 15.3802 11.902 11.2356 13.7682C10.5505 14.0831 9.88829 14.4564 9.22607 14.8413C8.95204 15.0046 8.74652 15.0046 8.56384 14.7363C8.0843 14.0131 7.60476 13.29 7.13663 12.5668C6.95395 12.2869 7.13663 12.1353 7.34215 12.0186C8.76936 11.2022 10.1623 10.304 11.6466 9.60421C15.8712 7.60969 20.3241 6.58327 24.9482 6.34999C29.5039 6.11672 33.8997 6.80488 38.0443 8.83439C40.4763 10.0241 42.5771 11.6454 44.1414 13.9198C45.4544 15.8327 45.9568 17.9205 45.2603 20.2066C45.1347 20.6032 44.9406 20.9881 44.7579 21.3614C44.6209 21.653 44.4382 21.6763 44.2784 21.3614C41.7322 16.6958 37.599 14.1531 32.815 12.5435C29.4354 11.4121 27.3802 11.1205 23.1214 11.1322Z" fill="#101010"/>
<path d="M18.4398 40.4054C14.9688 40.3354 11.4978 39.9855 8.15245 38.8541C6.16577 38.1892 4.43028 37.0928 3.07158 35.4366C1.83847 33.9203 1.4046 32.1473 1.57586 30.2111C1.5987 30.0012 1.74713 29.7096 1.91839 29.628C2.0554 29.5696 2.35226 29.7096 2.50069 29.8496C5.77757 32.7889 9.62533 34.5034 13.8841 35.2149C21.9907 36.5446 29.6177 34.9467 36.7994 30.9926C37.4845 30.6077 38.1695 30.1995 38.8318 29.7796C39.1058 29.6046 39.2885 29.6396 39.4027 29.9312C39.6653 30.5961 39.9621 31.2726 40.1676 31.9607C40.3275 32.4623 40.1334 32.8822 39.7109 33.2204C36.0002 36.148 31.8327 38.0959 27.2999 39.2973C24.4112 40.0554 21.4655 40.382 18.4398 40.4054Z" fill="#101010"/>
<path d="M44.0958 9.40297C44.0615 9.75289 44.0387 10.1028 43.9816 10.4411C43.9131 10.826 43.6505 10.9309 43.3194 10.721C43.2052 10.651 43.1138 10.5694 43.0225 10.476C39.8941 7.70005 36.2176 6.1021 32.1985 5.26231C30.326 4.86573 28.4193 4.65579 26.5011 4.70244C22.5392 4.78409 18.6457 5.35562 14.8779 6.69696C12.0577 7.70005 9.36317 8.95975 6.82844 10.5927C6.48591 10.8143 6.29181 10.7793 6.1548 10.4061C5.90361 9.71789 5.62958 9.02973 5.42407 8.3299C5.27564 7.84002 5.52682 7.47844 5.91503 7.17518C8.16431 5.40227 10.6191 4.00261 13.2338 2.85955C16.3051 1.51821 19.5135 0.643421 22.8246 0.270178C27.6771 -0.278023 32.4726 0.0135736 37.1652 1.45989C39.0492 2.04308 40.7161 3.02285 42.1091 4.48083C43.3993 5.8455 44.0501 7.50176 44.0958 9.40297Z" fill="#101010"/>
</svg>
